# xmcd
#
# Track frame offsets: 
#        150
#        12813
#        26722
#        40084
#        52707
#        66365
#        81338
#        95460
#        110628
#        122159
#        136222
#        149209
#        162645
#        175628
#        189940
#        203914
#        218522
#        231958
#        245121
#        256771
#        272375
#        287018
#        299965
#        313964
#
# Disc length: 4367 seconds
#
# Revision: 2
# Processed by: cddbd v1.5.2PL0 Copyright (c) Steve Scherf et al.
# Submitted via: ExactAudioCopyFreeDBPlugin 1.0
#
DISCID=6e110d18
DTITLE=Charles Brown - Charles Brown:  The Classic Earliest Recordings
DTITLE=, 1944-1950 [JSP Records]
DYEAR=2003
DGENRE=Rhythm and Blues
TTITLE0=Fugue in C Major
TTITLE1=Melancholy Madeline
TTITLE2=Tell Me You'll Wait for Me
TTITLE3=Nightfall
TTITLE4=Maureen
TTITLE5=Lost in the Night
TTITLE6=You Taught Me to Love
TTITLE7=End o' War Blues
TTITLE8=Johnny's Boogie
TTITLE9=C.O.D.
TTITLE10=B-Sharp You'll See
TTITLE11=There is No Greater Love
TTITLE12=Hard Tack
TTITLE13=Pasadena
TTITLE14=I Want You, I Need You
TTITLE15=My Silent Love
TTITLE16=Googie's Boogie
TTITLE17=Tonight I'm Alone
TTITLE18=Blazer's Boogie
TTITLE19=Baby Don't You Cry
TTITLE20=Drifting Blues
TTITLE21=Groovy
TTITLE22=You Are My First Love
TTITLE23=Race-Track Blues
EXTD=
EXTT0=
EXTT1=
EXTT2=
EXTT3=
EXTT4=
EXTT5=
EXTT6=
EXTT7=
EXTT8=
EXTT9=
EXTT10=
EXTT11=
EXTT12=
EXTT13=
EXTT14=
EXTT15=
EXTT16=
EXTT17=
EXTT18=
EXTT19=
EXTT20=
EXTT21=
EXTT22=
EXTT23=
PLAYORDER=
